# AST/ASF file generated using VICON BodyLanguage
# -----------------------------------------------
:version 1.10
:name VICON
:units
  mass 1.0
  length 0.45
  angle deg
:documentation
   .ast/.asf automatically generated from VICON data using
   VICON BodyBuilder and BodyLanguage model FoxedUp or BRILLIANT.MOD
:root
   order TX TY TZ RX RY RZ
   axis XYZ
   position 0 0 0  
   orientation 0 0 0 
:bonedata
  begin
     id 1 
     name lhipjoint
     direction 0.630305 -0.712092 0.309259 
     length 2.29033 
     axis 0 0 0  XYZ
  end
  begin
     id 2 
     name lfemur
     direction 0.34202 -0.939693 0  
     length 6.43538  
     axis 0 0 20  XYZ
    dof rx ry rz
    limits (-160.0 20.0)
           (-70.0 70.0)
           (-60.0 70.0)
  end
  begin
     id 3 
     name ltibia
     direction 0.34202 -0.939693 0   
     length 7.43097   
     axis 0 0 20   XYZ
    dof rx
    limits (-10.0 170.0)
  end
  begin
     id 4 
     name lfoot
     direction 0.0334653 -0.0919451 0.995202   
     length 1.78438   
     axis -90 7.62852e-016 20   XYZ
    dof rx rz
    limits (-45.0 90.0)
           (-70.0 20.0)
  end
  begin
     id 5 
     name ltoes
     direction 1.53535e-011 -4.21933e-011 1   
     length 0.90832   
     axis -90 7.62852e-016 20   XYZ
    dof rx
    limits (-90.0 20.0)
  end
  begin
     id 6 
     name rhipjoint
     direction -0.682059 -0.67077 0.291312   
     length 2.43143  
     axis 0 0 0  XYZ 
  end
  begin
     id 7 
     name rfemur
     direction -0.34202 -0.939693 0   
     length 6.63488   
     axis 0 0 -20   XYZ
    dof rx ry rz
    limits (-160.0 20.0)
           (-70.0 70.0)
           (-70.0 60.0)
  end
  begin
     id 8 
     name rtibia
     direction -0.34202 -0.939693 0   
     length 6.86532   
     axis 0 0 -20   XYZ
    dof rx
    limits (-10.0 170.0)
 end
 begin
     id 9 
     name rfoot
     direction -0.105199 -0.289033 0.951521   
     length 1.77126  
     axis -90 -7.62852e-016 -20   XYZ
    dof rx rz
    limits (-45.0 90.0)
           (-20.0 70.0)
  end
  begin
     id 10 
     name rtoes
     direction -1.53551e-011 -4.21978e-011 1   
     length 0.889273   
     axis -90 -7.62852e-016 -20   XYZ
    dof rx
    limits (-90.0 20.0)
  end
  begin
     id 11 
     name lowerback
     direction -0.0514305 0.998089 0.034245   
     length 2.02077   
     axis 0 0 0   XYZ
    dof rx ry rz
    limits (-20.0 45.0)
           (-30.0 30.0)
           (-30.0 30.0)
  end
  begin
     id 12 
     name upperback
     direction 0.0203189 0.999449 -0.0262315   
     length 2.01413   
     axis 0 0 0   XYZ
    dof rx ry rz
    limits (-20.0 45.0)
           (-30.0 30.0)
           (-30.0 30.0)
  end
  begin
     id 13 
     name thorax
     direction 0.0452736 0.998142 -0.0407729   
     length 2.02986   
     axis 0 0 0   XYZ
    dof rx ry rz
    limits (-20.0 45.0)
           (-30.0 30.0)
           (-30.0 30.0)
  end
  begin
     id 14 
     name lowerneck
     direction -0.0180464 0.999645 -0.0195774   
     length 1.59034   
     axis 0 0 0   XYZ
    dof rx ry rz
    limits (-20.0 45.0)
           (-30.0 30.0)
           (-30.0 30.0)
  end
  begin
     id 15 
     name upperneck
     direction 0.0732272 0.979935 -0.18538   
     length 1.57486   
     axis 0 0 0   XYZ
    dof rx ry rz
    limits (-20.0 45.0)
           (-30.0 30.0)
           (-30.0 30.0)
  end
  begin
     id 16
     name head
     direction 0.0252963 0.997909 -0.059472  
     length 1.60334  
     axis 0 0 0   XYZ
    dof rx ry rz
    limits (-20.0 45.0)
           (-30.0 30.0)
           (-30.0 30.0)
  end
  begin
     id 17 
     name lclavicle
     direction 0.943819 0.330449 0.00315172  
     length 3.50322  
     axis 0 0 0   XYZ
    dof ry rz
    limits (-20.0 10.0)
           (0.0 20.0)
  end
  begin
     id 18 
     name lhumerus
     direction 1 -4.48949e-011 2.22502e-028   
     length 4.63208   
     axis 180 -30 -90   XYZ
    dof rx ry rz
    limits (-60.0 90.0)
           (-90.0 90.0)
           (-90.0 90.0)
  end
  begin
     id 19
     name lradius
     direction 1 -4.48967e-011 -4.10197e-027   
     length 3.41924   
     axis 180 -30 -90   XYZ
    dof rx
    limits (-10.0 170.0)
  end
  begin
     id 20
     name lwrist
     direction 1 -4.48987e-011 -1.24264e-027   
     length 1.70962   
     axis 2.50585e-015 90 90   XYZ
    dof ry
    limits (-180.0 0.0)
 end
  begin
     id 21 
     name lhand
     direction 1 -4.48983e-011 -2.48528e-027   
     length 0.62537   
     axis 1.58582e-015 90 90   XYZ
    dof rx rz
    limits (-90.0 90.0)
           (-45.0 45.0)
  end
  begin
     id 22 
     name lfingers
     direction 1 -4.48896e-011 -4.97056e-027   
     length 0.50419   
     axis 3.17164e-015 90 90   XYZ
    dof rx
    limits (0.0 90.0)
  end
  begin
     id 23
     name lthumb
     direction 0.707107 -6.34803e-011 0.707107   
     length 0.723919   
     axis -90 45 2.85299e-015   XYZ
    dof rx rz
    limits (-45.0 45.0)
           (-45.0 45.0)
  end
  begin
     id 24 
     name rclavicle
     direction -0.964499 0.260664 -0.0423695   
     length 3.91997  
     axis 0 0 0   XYZ 
    dof ry rz
    limits (-10.0 20.0)
           (-20.0 0.0)
  end
  begin
     id 25 
     name rhumerus
     direction -1 -4.48957e-011 -1.98656e-027  
     length 4.4064   
     axis 180 30 90   XYZ
    dof rx ry rz
    limits (-90.0 60.0)
           (-90.0 90.0)
           (-90.0 90.0)
  end
  begin
     id 26 
     name rradius
     direction -1 -4.48968e-011 1.96972e-027   
     length 3.44675   
     axis 180 30 90   XYZ
    dof rx
    limits (-10.0 170.0)
  end
  begin
     id 27 
     name rwrist
     direction -1 -4.48974e-011 -1.24264e-027   
     length 1.72338   
     axis 2.50585e-015 -90 -90   XYZ
    dof ry
    limits (-180.0 0.0)
  end
  begin
     id 28
     name rhand
     direction -1 -4.48901e-011 -2.48528e-027   
     length 0.513674   
     axis 1.58582e-015 -90 -90   XYZ
    dof rx rz
    limits (-90.0 90.0)
           (-45.0 45.0)
  end
  begin
     id 29
     name rfingers
     direction -1 -4.48946e-011 -4.97056e-027   
     length 0.414137   
     axis 3.17164e-015 -90 -90   XYZ
    dof rx
    limits (0.0 90.0)
  end
  begin
     id 30
     name rthumb
     direction -0.707107 -6.34859e-011 0.707107   
     length 0.59462   
     axis -90 -45 -2.85299e-015   XYZ
    dof rx rz
    limits (-45.0 45.0)
           (-45.0 45.0)
  end
:hierarchy
  begin
    root lhipjoint rhipjoint lowerback
    lhipjoint lfemur
    lfemur ltibia
    ltibia lfoot
    lfoot ltoes
    rhipjoint rfemur
    rfemur rtibia
    rtibia rfoot
    rfoot rtoes
    lowerback upperback
    upperback thorax
    thorax lowerneck lclavicle rclavicle
    lowerneck upperneck
    upperneck head
    lclavicle lhumerus
    lhumerus lradius
    lradius lwrist
    lwrist lhand lthumb
    lhand lfingers
    rclavicle rhumerus
    rhumerus rradius
    rradius rwrist
    rwrist rhand rthumb
    rhand rfingers
  end

#!OML:ASF E:\inclinewalkrobotboard\Project 1\Capture day 1\Session 1\subject1.ASF
:FULLY-SPECIFIED
:DEGREES
181
root 11.1795 17.1318 -16.5499 13.0186 -6.29697 -4.75961
lowerback -1.63111 2.6488 -8.78807
upperback 2.82478 3.86777 -1.20072
thorax 3.36725 1.69988 3.82028
lowerneck -6.83332 0.478538 -1.87961
upperneck 25.6124 -0.660269 6.70875
head 9.1522 0.191282 2.56351
rclavicle 8.74653e-015 -9.54166e-015
rhumerus -32.0295 -10.0413 -76.457
rradius 23.1092
rwrist 22.693
rhand -13.8158 -37.2274
rfingers 7.12502
rthumb 12.3067 -66.8453
lclavicle 8.74653e-015 -9.54166e-015
lhumerus -17.0572 -3.47819 85.3527
lradius 15.6876
lwrist -27.1068
lhand -25.635 -19.1596
lfingers 7.12502
lthumb 0.89832 10.8183
rfemur -20.89 10.4717 13.2766
rtibia 36.5993
rfoot -25.574 -10.8129
rtoes -42.3164
lfemur -23.5239 -7.96423 -13.0169
ltibia 22.1047
lfoot -16.5604 12.7927
ltoes -67.8657
182
root 11.2042 17.1375 -16.453 12.8721 -6.03165 -4.18651
lowerback -1.379 2.44058 -9.59331
upperback 2.93308 3.59848 -1.32849
thorax 3.34105 1.54332 4.11513
lowerneck -6.78317 0.469028 -1.81234
upperneck 25.5515 -0.722869 6.86486
head 9.12493 0.181318 2.59787
rclavicle -3.97569e-016 1.59028e-014
rhumerus -33.0549 -11.3923 -75.3497
rradius 22.028
rwrist 24.2583
rhand -14.1222 -37.3195
rfingers 7.12502
rthumb 12.0113 -66.9548
lclavicle -3.97569e-016 1.59028e-014
lhumerus -16.3554 -4.37096 85.9779
lradius 15.9998
lwrist -26.894
lhand -25.9025 -19.3491
lfingers 7.12502
lthumb 0.639894 10.6297
rfemur -21.8531 10.4428 12.3077
rtibia 36.6462
rfoot -25.2728 -11.099
rtoes -42.1243
lfemur -23.095 -8.12852 -13.9399
ltibia 22.0712
lfoot -16.7799 12.461
ltoes -67.904
183
root 11.2282 17.1436 -16.3439 13.0396 -5.66465 -4.36072
lowerback -1.53881 2.28805 -9.50965
upperback 2.97973 3.41478 -1.29318
thorax 3.50851 1.44475 4.11055
lowerneck -6.56396 0.355545 -1.81449
upperneck 25.3716 -0.924553 7.07331
head 9.03144 0.101112 2.64513
rclavicle -7.55382e-015 -4.77083e-015
rhumerus -34.3206 -12.7235 -74.1913
rradius 21.2805
rwrist 25.498
rhand -14.0737 -37.6064
rfingers 7.12502
rthumb 12.058 -67.239
lclavicle -7.55382e-015 -4.77083e-015
lhumerus -15.6347 -6.42083 86.7833
lradius 16.2045
lwrist -25.5482
lhand -25.7903 -19.4926
lfingers 7.12502
lthumb 0.748292 10.4858
rfemur -22.9284 10.5688 12.1846
rtibia 36.5465
rfoot -24.9577 -11.4013
rtoes -42.0872
lfemur -22.9176 -8.24443 -13.9299
ltibia 22.1027
lfoot -17.0597 12.2109
ltoes -67.9293
184
root 11.242 17.1493 -16.2419 13.1152 -5.26973 -4.47125
lowerback -1.51323 2.13155 -9.60595
upperback 3.03803 3.20854 -1.20875
thorax 3.57556 1.3335 4.2465
lowerneck -6.51466 0.258448 -1.9188
upperneck 25.3364 -1.09676 7.29293
head 9.01957 0.0308276 2.72174
rclavicle 1.39149e-014 4.77083e-015
rhumerus -35.5825 -13.6622 -73.1712
rradius 20.9094
rwrist 26.2488
rhand -13.7273 -37.4545
rfingers 7.12502
rthumb 12.3921 -67.0672
lclavicle 1.39149e-014 4.77083e-015
lhumerus -15.0185 -9.61438 87.7205
lradius 16.5552
lwrist -23.1123
lhand -25.7575 -19.2524
lfingers 7.12502
lthumb 0.779962 10.7259
rfemur -23.9487 10.7652 12.0217
rtibia 36.3795
rfoot -24.5801 -11.7558
rtoes -41.6783
lfemur -22.6121 -8.37279 -13.9537
ltibia 22.0623
lfoot -17.2672 12.1508
ltoes -67.9799
185
root 11.2464 17.155 -16.1551 13.1497 -4.79149 -4.6988
lowerback -1.24361 1.87085 -9.68288
upperback 3.07589 2.83046 -1.06082
thorax 3.50652 1.14378 4.42241
lowerneck -6.60708 0.296774 -1.93434
upperneck 25.417 -1.09393 7.47813
head 9.06565 0.0503427 2.79126
rclavicle 7.95139e-016 -1.59028e-014
rhumerus -36.6019 -14.6251 -72.2319
rradius 20.3164
rwrist 27.3977
rhand -13.5946 -36.8373
rfingers 7.12502
rthumb 12.5199 -66.4422
lclavicle 7.95139e-016 -1.59028e-014
lhumerus -14.476 -10.7897 88.2916
lradius 16.9638
lwrist -22.6433
lhand -25.8136 -18.7752
lfingers 7.12502
lthumb 0.725736 11.2033
rfemur -25.0598 11.076 11.9922
rtibia 36.2531
rfoot -24.116 -12.3012
rtoes -41.0143
lfemur -22.4571 -8.39618 -13.7402
ltibia 22.243
lfoot -17.5519 11.8563
ltoes -68.0337
